<?xml version="1.0" encoding="UTF-8"?>
<svg id="Layer_2" data-name="Layer 2" xmlns="http://www.w3.org/2000/svg" xmlns:xlink="http://www.w3.org/1999/xlink" viewBox="0 0 185.48 64.35">
  <defs>
    <style>
      .cls-1 {
        fill: white;
      }

      .cls-1, .cls-2 {
        stroke-width: 0px;
      }

      .cls-3 {
        stroke: white;
      }

      .cls-3, .cls-4 {
        fill: none;
        stroke-miterlimit: 10;
      }

      .cls-4 {
        stroke: white;
      }

      .cls-2 {
        fill: white;
      }
    </style>
    <linearGradient id="linear-gradient" x1=".83" y1="57.01" x2="185.08" y2="57.01" gradientUnits="userSpaceOnUse">
      <stop offset="0" stop-color="#c94635"/>
      <stop offset=".45" stop-color="#ae221e"/>
      <stop offset="1" stop-color="#602a1c"/>
    </linearGradient>
    <linearGradient id="lichtrood" x1="2.13" y1="59.85" x2="186.38" y2="59.85" gradientTransform="translate(187.21) rotate(-180) scale(1 -1)" gradientUnits="userSpaceOnUse">
      <stop offset="0" stop-color="#c94635"/>
      <stop offset=".45" stop-color="#ae221e"/>
      <stop offset="1" stop-color="#602a1c"/>
    </linearGradient>
  </defs>
  <g id="subtext">
    <g>
      <path class="cls-1" d="M1.39,42.66h.02c.21-.48.58-.8,1.14-.8.21,0,.38.05.56.12l-.27.46c-.13-.07-.23-.1-.36-.1-1.15,0-1.08,1.44-1.08,2.21v2.69h-.51v-5.27h.51v.68Z"/>
      <path class="cls-1" d="M4.05,44.65c-.03,1.33.89,2.22,2.11,2.22.82,0,1.48-.49,1.86-1.2l.43.25c-.48.91-1.32,1.42-2.36,1.42-1.56,0-2.55-1.27-2.55-2.76s1.01-2.74,2.55-2.74,2.54,1.28,2.53,2.79h-4.57ZM8.1,44.17c-.13-.97-.92-1.83-2.01-1.83s-1.96.84-2.05,1.83h4.06Z"/>
      <path class="cls-1" d="M10.37,42.92h.02c.39-.67,1.23-1.06,2.01-1.06,1.61,0,2.6,1.25,2.6,2.79s-.99,2.7-2.58,2.7c-.81,0-1.6-.35-2.03-1.03h-.02v3.99h-.51v-8.34h.51v.95ZM10.34,44.72c0,1.23.83,2.15,2.1,2.15s2.05-1.04,2.05-2.21-.79-2.33-2.07-2.33-2.07,1.12-2.07,2.38Z"/>
      <path class="cls-1" d="M20.87,47.24h-.51v-.95h-.02c-.39.67-1.23,1.06-2.01,1.06-1.6,0-2.6-1.24-2.6-2.78s.99-2.71,2.58-2.71c.81,0,1.58.36,2.03,1.03h.02v-.91h.51v5.27ZM16.24,44.57c0,1.21.8,2.3,2.07,2.3,1.35,0,2.07-1.09,2.07-2.36s-.83-2.18-2.11-2.18c-1.21,0-2.04,1.09-2.04,2.23Z"/>
      <path class="cls-1" d="M23.14,42.66h.02c.21-.48.58-.8,1.14-.8.21,0,.38.05.56.12l-.27.46c-.13-.07-.23-.1-.36-.1-1.15,0-1.08,1.44-1.08,2.21v2.69h-.51v-5.27h.51v.68Z"/>
      <path class="cls-1" d="M30.42,47.24h-.51v-.95h-.02c-.39.67-1.23,1.06-2.01,1.06-1.6,0-2.6-1.24-2.6-2.78s.99-2.71,2.58-2.71c.81,0,1.58.36,2.03,1.03h.02v-.91h.51v5.27ZM25.79,44.57c0,1.21.8,2.3,2.07,2.3,1.35,0,2.07-1.09,2.07-2.36s-.83-2.18-2.11-2.18c-1.21,0-2.04,1.09-2.04,2.23Z"/>
      <path class="cls-1" d="M32.74,47.24h-.51v-4.79h-.58v-.48h.58v-1.88h.51v1.88h.92v.48h-.92v4.79Z"/>
      <path class="cls-1" d="M35.48,40.22c0,.26-.21.47-.47.47s-.47-.21-.47-.47.21-.47.47-.47.47.22.47.47ZM35.26,47.24h-.51v-5.27h.51v5.27Z"/>
      <path class="cls-1" d="M37.22,44.65c-.03,1.33.89,2.22,2.11,2.22.82,0,1.48-.49,1.86-1.2l.43.25c-.48.91-1.32,1.42-2.36,1.42-1.56,0-2.55-1.27-2.55-2.76s1.01-2.74,2.55-2.74,2.54,1.28,2.53,2.79h-4.57ZM41.28,44.17c-.13-.97-.92-1.83-2.01-1.83s-1.96.84-2.05,1.83h4.06Z"/>
      <path class="cls-1" d="M46.57,44.65c-.03,1.33.89,2.22,2.11,2.22.82,0,1.48-.49,1.86-1.2l.43.25c-.48.91-1.32,1.42-2.36,1.42-1.56,0-2.55-1.27-2.55-2.76s1.01-2.74,2.55-2.74,2.54,1.28,2.53,2.79h-4.57ZM50.62,44.17c-.13-.97-.92-1.83-2.01-1.83s-1.96.84-2.05,1.83h4.06Z"/>
      <path class="cls-1" d="M52.89,42.79h.02c.31-.58.88-.93,1.56-.93,1.36,0,1.73.84,1.73,2.2v3.18h-.51v-3.18c0-.95-.11-1.72-1.27-1.72-1.32,0-1.54,1.23-1.54,2.3v2.6h-.51v-5.27h.51v.82Z"/>
      <path class="cls-1" d="M66.49,44.6c0,1.56-1.22,2.75-2.77,2.75s-2.74-1.24-2.74-2.74,1.21-2.76,2.74-2.76,2.77,1.19,2.77,2.75ZM61.5,44.62c0,1.2.95,2.26,2.19,2.26s2.29-.98,2.29-2.26-.99-2.28-2.29-2.28-2.19,1.06-2.19,2.28Z"/>
      <path class="cls-1" d="M68.24,42.79h.02c.31-.58.88-.93,1.56-.93,1.36,0,1.73.84,1.73,2.2v3.18h-.51v-3.18c0-.95-.11-1.72-1.27-1.72-1.32,0-1.54,1.23-1.54,2.3v2.6h-.51v-5.27h.51v.82Z"/>
      <path class="cls-1" d="M77.43,46.29h-.02c-.39.67-1.23,1.06-2.01,1.06-1.6,0-2.6-1.24-2.6-2.78s.99-2.71,2.58-2.71c.81,0,1.58.36,2.03,1.03h.02v-5.05h.51v9.4h-.51v-.95ZM77.46,44.51c0-1.22-.83-2.18-2.11-2.18-1.21,0-2.04,1.09-2.04,2.23,0,1.21.8,2.3,2.07,2.3,1.35,0,2.07-1.09,2.07-2.36Z"/>
      <path class="cls-1" d="M79.7,44.65c-.03,1.33.89,2.22,2.11,2.22.82,0,1.48-.49,1.86-1.2l.43.25c-.48.91-1.32,1.42-2.36,1.42-1.56,0-2.55-1.27-2.55-2.76s1.01-2.74,2.55-2.74,2.54,1.28,2.53,2.79h-4.57ZM83.75,44.17c-.13-.97-.92-1.83-2.01-1.83s-1.96.84-2.05,1.83h4.06Z"/>
      <path class="cls-1" d="M86.02,42.66h.02c.21-.48.58-.8,1.14-.8.21,0,.38.05.56.12l-.27.46c-.13-.07-.23-.1-.36-.1-1.15,0-1.08,1.44-1.08,2.21v2.69h-.51v-5.27h.51v.68Z"/>
      <path class="cls-1" d="M89.19,37.83v4.96h.02c.31-.58.88-.93,1.56-.93,1.36,0,1.73.84,1.73,2.2v3.18h-.51v-3.18c0-.95-.11-1.72-1.27-1.72-1.32,0-1.54,1.23-1.54,2.3v2.6h-.51v-9.4h.51Z"/>
      <path class="cls-1" d="M99.25,44.6c0,1.56-1.22,2.75-2.77,2.75s-2.74-1.24-2.74-2.74,1.21-2.76,2.74-2.76,2.77,1.19,2.77,2.75ZM94.26,44.62c0,1.2.95,2.26,2.19,2.26s2.29-.98,2.29-2.26-.99-2.28-2.29-2.28-2.19,1.06-2.19,2.28Z"/>
      <path class="cls-1" d="M104.2,41.97v3.16c0,.54.01,1.07-.32,1.52-.36.48-.98.71-1.57.71s-1.21-.23-1.57-.71c-.33-.44-.32-.98-.32-1.52v-3.16h.51v2.97c0,1.01.11,1.93,1.38,1.93s1.38-.91,1.38-1.93v-2.97h.51Z"/>
      <path class="cls-1" d="M109.99,46.29h-.02c-.39.67-1.23,1.06-2.01,1.06-1.6,0-2.6-1.24-2.6-2.78s.99-2.71,2.58-2.71c.81,0,1.58.36,2.03,1.03h.02v-5.05h.51v9.4h-.51v-.95ZM110.02,44.51c0-1.22-.83-2.18-2.11-2.18-1.21,0-2.04,1.09-2.04,2.23,0,1.21.8,2.3,2.07,2.3,1.34,0,2.07-1.09,2.07-2.36Z"/>
      <path class="cls-1" d="M115.79,37.83h.51v5.05h.02c.45-.66,1.22-1.03,2.03-1.03,1.57,0,2.58,1.17,2.58,2.71s-1,2.78-2.6,2.78c-.78,0-1.62-.39-2.01-1.06h-.02v.95h-.51v-9.4ZM120.42,44.57c0-1.15-.83-2.23-2.05-2.23-1.33,0-2.1.99-2.1,2.25s.78,2.29,2.07,2.29,2.08-1.09,2.08-2.3Z"/>
      <path class="cls-1" d="M127.17,44.6c0,1.56-1.22,2.75-2.77,2.75s-2.74-1.24-2.74-2.74,1.21-2.76,2.74-2.76,2.77,1.19,2.77,2.75ZM122.17,44.62c0,1.2.95,2.26,2.19,2.26s2.29-.98,2.29-2.26-.99-2.28-2.29-2.28-2.19,1.06-2.19,2.28Z"/>
      <path class="cls-1" d="M132.11,41.97v3.16c0,.54.01,1.07-.32,1.52-.36.48-.98.71-1.57.71s-1.21-.23-1.57-.71c-.33-.44-.32-.98-.32-1.52v-3.16h.51v2.97c0,1.01.11,1.93,1.38,1.93s1.38-.91,1.38-1.93v-2.97h.51Z"/>
      <path class="cls-1" d="M135.35,46.29l1.86-4.6,1.87,4.6,1.82-4.32h.52l-2.38,5.55-1.86-4.55-1.85,4.55-2.37-5.55h.52l1.86,4.32Z"/>
      <path class="cls-1" d="M142.87,42.63h.02c.24-.49.76-.78,1.32-.78.67,0,1.21.34,1.48.96.28-.63.87-.96,1.54-.96,1.36,0,1.63.92,1.63,2.07v3.31h-.51v-3.37c0-.81-.12-1.53-1.13-1.53-1.09,0-1.36.96-1.36,1.87v3.03h-.51v-3.25c0-.82-.15-1.65-1.17-1.65-1.11,0-1.31,1.15-1.31,2.01v2.9h-.51v-5.27h.51v.66Z"/>
      <path class="cls-1" d="M155.25,47.24h-.51v-.95h-.02c-.39.67-1.23,1.06-2.01,1.06-1.6,0-2.6-1.24-2.6-2.78s.99-2.71,2.58-2.71c.81,0,1.58.36,2.03,1.03h.02v-.91h.51v5.27ZM150.62,44.57c0,1.21.8,2.3,2.07,2.3,1.34,0,2.07-1.09,2.07-2.36s-.83-2.18-2.11-2.18c-1.21,0-2.04,1.09-2.04,2.23Z"/>
      <path class="cls-1" d="M161.04,43.19c-.5-.55-1.11-.85-1.86-.85-1.24,0-2.18,1.06-2.18,2.26s.92,2.28,2.17,2.28c.75,0,1.46-.36,1.94-.95v.7c-.54.47-1.21.73-1.92.73-1.56,0-2.7-1.22-2.7-2.76s1.16-2.74,2.71-2.74c.68,0,1.31.21,1.84.65v.68Z"/>
      <path class="cls-1" d="M162.95,37.83v4.96h.02c.31-.58.88-.93,1.56-.93,1.36,0,1.73.84,1.73,2.2v3.18h-.51v-3.18c0-.95-.11-1.72-1.26-1.72-1.32,0-1.54,1.23-1.54,2.3v2.6h-.51v-9.4h.51Z"/>
      <path class="cls-1" d="M168.94,40.22c0,.26-.21.47-.47.47s-.47-.21-.47-.47.21-.47.47-.47.47.22.47.47ZM168.73,47.24h-.51v-5.27h.51v5.27Z"/>
      <path class="cls-1" d="M171.2,42.79h.02c.31-.58.88-.93,1.56-.93,1.36,0,1.73.84,1.73,2.2v3.18h-.51v-3.18c0-.95-.11-1.72-1.26-1.72-1.32,0-1.54,1.23-1.54,2.3v2.6h-.51v-5.27h.51v.82Z"/>
      <path class="cls-1" d="M176.27,44.65c-.03,1.33.89,2.22,2.11,2.22.82,0,1.48-.49,1.86-1.2l.43.25c-.48.91-1.32,1.42-2.36,1.42-1.56,0-2.55-1.27-2.55-2.76s1.01-2.74,2.55-2.74,2.54,1.28,2.53,2.79h-4.57ZM180.33,44.17c-.12-.97-.92-1.83-2.01-1.83s-1.96.84-2.05,1.83h4.06Z"/>
      <path class="cls-1" d="M184.3,42.93c-.17-.36-.51-.59-.92-.59-.45,0-.9.37-.9.82,0,1.27,2.56.65,2.56,2.55,0,.97-.75,1.64-1.7,1.64-.88,0-1.6-.54-1.81-1.39l.5-.16c.19.63.62,1.07,1.31,1.07s1.19-.52,1.19-1.18-.5-.86-1.03-1.04c-.72-.26-1.54-.57-1.54-1.46,0-.8.67-1.33,1.44-1.33.54,0,1.12.35,1.34.84l-.44.23Z"/>
    </g>
  </g>
  <g id="text">
    <g>
      <path class="cls-2" d="M8.72,12.08h-.08l-3.64,20.6H.98L7.35.17l10.72,24.58L28.78.17l6.37,32.52h-4.01l-3.64-20.6h-.08l-9.35,21.27L8.72,12.08Z"/>
      <path class="cls-2" d="M40.7,1.49h16.76v3.56h-12.87v8.73h12.5v3.56h-12.5v11.79h12.87v3.56h-16.76V1.49Z"/>
      <path class="cls-2" d="M83.72,32.69h-4.72l-9.18-13.2h-1.61v13.2h-3.89V1.49h4.72c2.77,0,5.75.04,8.23,1.45,2.61,1.53,4.1,4.47,4.1,7.45,0,4.47-2.98,8.19-7.49,8.73l9.85,13.57ZM68.21,16.26h1.24c3.97,0,8.28-.74,8.28-5.71s-4.63-5.59-8.48-5.59h-1.03v11.29Z"/>
      <path class="cls-2" d="M96.42,32.69h-3.89V5.05h-7.41V1.49h18.7v3.56h-7.41v27.64Z"/>
      <path class="cls-2" d="M108.96,1.49h16.76v3.56h-12.87v8.73h12.5v3.56h-12.5v11.79h12.87v3.56h-16.76V1.49Z"/>
      <path class="cls-2" d="M132.21,0l23.42,24.53V1.49h3.89v32.48l-23.42-24.53v23.25h-3.89V0Z"/>
      <path class="cls-2" d="M180.98,7.41c-1.16-1.94-2.65-2.94-5.01-2.94-2.48,0-5.21,1.7-5.21,4.43,0,2.44,2.4,3.72,4.34,4.47l2.23.87c4.43,1.74,7.74,4.18,7.74,9.39,0,5.67-4.39,9.72-9.97,9.72-5.05,0-8.98-3.72-9.64-8.73l3.93-.83c-.04,3.43,2.69,5.92,6.04,5.92s5.75-2.81,5.75-6.08-2.69-4.8-5.38-5.92l-2.15-.91c-3.56-1.53-6.79-3.56-6.79-7.9,0-5.05,4.47-8.07,9.18-8.07,3.48,0,6.33,1.7,8.03,4.72l-3.1,1.86Z"/>
    </g>
  </g>
  <g id="lines">
    <line class="cls-4" x1=".83" y1="57.01" x2="185.08" y2="57.01"/>
    <line class="cls-3" x1="185.08" y1="59.85" x2=".83" y2="59.85"/>
  </g>
</svg>